<?xml version="1.0" encoding="UTF-8"?>
<svg width="598.958px" height="932.745px" viewBox="0 0 598.958 932.745" version="1.1" xmlns="http://www.w3.org/2000/svg" xmlns:xlink="http://www.w3.org/1999/xlink">
    <title>LogoVM</title>
    <g id="LogoVM" stroke="none" stroke-width="1" fill="none" fill-rule="evenodd">
        <g id="Group_1" transform="translate(127.575000, 812.249000)" fill="#FFFFFF" fill-rule="nonzero">
            <rect id="Rectangle_2" x="1.77635684e-15" y="0" width="343.804" height="35.284"></rect>
        </g>
        <path d="M166.277,774.124 C164.429835,773.149136 162.88599,771.685544 161.814,769.893 C159.652593,766.099255 159.652593,761.446745 161.814,757.653 C162.883591,755.858535 164.428045,754.394366 166.277,753.422 C168.241907,752.388215 170.435004,751.864526 172.655,751.899 C174.507571,751.870521 176.346032,752.225276 178.055,752.941 C179.624528,753.61522 181.013063,754.649854 182.108,755.961 L178.696,759.114 C177.281772,757.385476 175.157163,756.395316 172.924,756.424 C171.593562,756.400969 170.279861,756.723106 169.111,757.359 C168.014168,757.96458 167.112365,758.869851 166.511,759.969 C165.263357,762.351548 165.263357,765.194452 166.511,767.577 C167.115104,768.674098 168.016229,769.578689 169.111,770.187 C170.279761,770.823151 171.593531,771.145305 172.924,771.122 C175.164876,771.149507 177.293709,770.144102 178.696,768.396 L182.108,771.55 C181.019222,772.881868 179.62177,773.927811 178.037,774.597 C176.326767,775.317564 174.485629,775.67544 172.63,775.648 C170.418087,775.680366 168.23351,775.156315 166.277,774.124 L166.277,774.124 Z" id="Path_1"></path>
        <g id="Group_2" transform="translate(278.869000, 601.036000)" fill="#FFFFFF" fill-rule="nonzero">
            <rect id="Rectangle_3" x="0" y="0" width="41.217" height="331.709"></rect>
        </g>
        <path d="M488.982,129.894 C484.389615,129.930003 480.56375,133.423746 480.112,137.994 L453.053,154.32 L392.571,119.42 L326.626,157.534 L326.626,227.4 L266.277,261.527 L266.277,331.843 L218.135,359.673 C215.791698,357.147885 212.520703,355.686541 209.076345,355.625972 C205.631988,355.565402 202.311635,356.910836 199.881,359.352 L165.17,338.4 L165.17,287.751 L154.243,287.751 L154.243,331.843 L148.974,328.694 L142.289,332.486 L142.289,287.751 L131.362,287.751 L131.362,338.4 L131.876,338.4 L81.807,366.809 L81.807,441.109 L92.734,441.109 L92.734,373.172 L148.777,341.356 L196.146,369.829 C196.813982,376.231434 202.145241,381.134337 208.581101,381.264966 C215.016962,381.395594 220.542776,376.713056 221.47,370.343 L271.732,341.356 L326.815,373.107 L326.815,436.673 L269.033,470.032 L274.496,479.544 L337.741,442.972 L337.741,373.172 L379.077,349.9 C375.924285,347.714925 373.93705,344.21408 373.677,340.387 L332.348,363.654 L277.202,331.839 L277.202,267.89 L332.028,236.846 L392.573,271.812 L458.577,233.7 L458.577,163.77 L485.701,147.38 C486.742073,147.811474 487.852631,148.051 488.979,148.087 C493.884683,147.924311 497.777379,143.90038 497.777379,138.992 C497.777379,134.08362 493.884683,130.059689 488.979,129.897 L488.982,129.894 Z M447.654,227.394 L392.571,259.209 L337.552,227.4 L337.552,163.831 L392.571,132.08 L447.654,163.831 L447.654,227.394 Z" id="Path_2" fill="#FFFFFF" fill-rule="nonzero"></path>
        <rect id="Rectangle_4" fill="#FFFFFF" fill-rule="nonzero" x="345.767" y="168.202" width="10.928" height="57.888"></rect>
        <rect id="Rectangle_5" fill="#FFFFFF" fill-rule="nonzero" transform="translate(413.240687, 160.200859) rotate(-59.999272) translate(-413.240687, -160.200859) " x="407.777307" y="131.256996" width="10.9267596" height="57.8877264"></rect>
        <rect id="Rectangle_6" fill="#FFFFFF" fill-rule="nonzero" transform="translate(413.240925, 233.628656) rotate(-30.004000) translate(-413.240925, -233.628656) " x="384.295925" y="228.165656" width="57.89" height="10.926"></rect>
        <g id="Group_7" fill="#FFFFFF" fill-rule="nonzero">
            <path d="M299.477,598.962 C134.346,598.962 0,464.616 0,299.481 C0,134.346 134.344,0 299.477,0 C464.61,0 598.958,134.346 598.958,299.481 C598.958,464.616 464.61,598.962 299.477,598.962 Z M299.477,33.772 C152.965,33.772 33.777,152.972 33.777,299.481 C33.777,445.99 152.963,565.19 299.477,565.19 C445.991,565.19 565.186,445.99 565.186,299.481 C565.186,152.972 445.987,33.772 299.477,33.772 Z" id="Path_14"></path>
        </g>
    </g>
</svg>